<svg width="799.9999999999999" height="600" xmlns="http://www.w3.org/2000/svg">
 <g>
  <title>Layer 1</title>
  <text transform="rotate(-31.6759 355.484 294.85)" stroke="#000" fill="#000000" stroke-width="0" x="349.90219" y="302.74577" id="svg_1" font-size="24" font-family="Noto Sans JP" text-anchor="start" xml:space="preserve"/>
  <text stroke="#000" transform="rotate(-31.6759 425.29 274.634) matrix(10.0989 0 0 6.38328 -3191.75 -1298.74)" font-style="normal" font-weight="normal" xml:space="preserve" text-anchor="start" font-family="monospace" font-size="24" id="svg_3" y="254.527" x="351.56583" stroke-width="0" fill="#000000">D</text>
  <rect transform="rotate(-31.6759 359.953 318.053)" stroke="#000" id="svg_5" height="96.8" width="20.4" y="269.65246" x="349.75284" stroke-width="0" fill="#000000"/>
  <rect transform="rotate(-31.6759 351.2 276.607)" stroke="#000" id="svg_6" height="19.19503" width="49.02184" y="267.00953" x="326.68892" stroke-width="0" fill="#000000"/>
  <path fill="#000000" stroke="#000" opacity="NaN" d="m480.91211,230.83892c13.77504,15.88773 20.86083,54.1748 3.92135,76.92129c2.65487,1.97493 52.84344,-54.51639 58.15745,-60.65649c5.31401,-6.1401 57.95169,-65.42512 16.65217,-59.56522c-41.29952,5.8599 -85.41546,26.38647 -93,31.69565" id="svg_10"/>
  <path transform="rotate(-2 293.848 358.027)" fill="#000000" stroke="#000" opacity="NaN" d="m318.47963,302.23645c-2.24215,23.76682 9.94348,52.68464 39.01345,62.78027c29.06997,10.09563 22.97535,3.74857 -63.67713,33.63229c-86.65248,29.88372 -99.82439,13.78508 -51.46828,-32.26162" id="svg_11"/>
  <path fill="#000000" stroke="#000" d="m-320.53613,27.66214l0.56913,0l0.17587,-0.54067l0.17587,0.54067l0.56913,0l-0.46044,0.33415l0.17588,0.54067l-0.46044,-0.33416l-0.46044,0.33416l0.17588,-0.54067l-0.46044,-0.33415z" id="svg_14"/>
 </g>

</svg>