<svg width="799.9999999999999" height="600" xmlns="http://www.w3.org/2000/svg">
 <g>
  <title>Layer 1</title>
  <text transform="rotate(-31.6759 268.484 181.85)" xml:space="preserve" text-anchor="start" font-family="Noto Sans JP" font-size="24" id="svg_1" y="189.74577" x="262.90219" stroke-width="0" fill="#000000" stroke="#000"/>
  <text fill="#000000" stroke-width="0" x="342.95103" y="236.8245" id="svg_3" font-size="24" font-family="monospace" text-anchor="start" xml:space="preserve" font-weight="normal" font-style="normal" transform="rotate(-31.6759 338.286 161.64) matrix(10.0989 0 0 6.38328 -3191.75 -1298.74)" stroke="#000">D</text>
  <rect transform="rotate(-31.6759 272.953 205.053)" fill="#000000" stroke-width="0" x="262.75284" y="156.65246" width="20.4" height="96.8" id="svg_5" stroke="#000"/>
  <rect transform="rotate(-31.6759 264.2 163.607)" fill="#000000" stroke-width="0" x="239.68892" y="154.00953" width="49.02184" height="19.19503" id="svg_6" stroke="#000"/>
  <path id="svg_10" d="m393.91211,117.83892c13.77504,15.88773 20.86083,54.1748 3.92135,76.92129c2.65487,1.97493 52.84344,-54.51639 58.15745,-60.65649c5.31401,-6.1401 57.95169,-65.42512 16.65217,-59.56522c-41.29952,5.8599 -85.41546,26.38647 -93,31.69565" opacity="NaN" stroke="#000" fill="#000000"/>
  <path id="svg_11" d="m231.47963,189.23645c-2.24215,23.76682 9.94348,52.68464 39.01345,62.78027c29.06997,10.09563 22.97535,3.74857 -63.67713,33.63229c-86.65248,29.88372 -99.82439,13.78508 -51.46828,-32.26162" opacity="NaN" stroke="#000" fill="#000000" transform="rotate(4 206.848 245.027)"/>
  <path id="svg_14" d="m-320.53613,27.66214l0.56913,0l0.17587,-0.54067l0.17587,0.54067l0.56913,0l-0.46044,0.33415l0.17588,0.54067l-0.46044,-0.33416l-0.46044,0.33416l0.17588,-0.54067l-0.46044,-0.33415z" stroke="#000" fill="#000000"/>
  <path stroke="#000" id="svg_17" d="m451.18751,300.47212c0,-7.49873 5.92696,-13.57272 13.24418,-13.57272c7.31723,0 13.24417,6.07398 13.24417,13.57272c0,7.49873 -5.92694,13.57272 -13.24417,13.57272c-7.31723,0 -13.24418,-6.07398 -13.24418,-13.57272zm44.52919,38.41946l0,-6.85461c0,-7.21206 -5.70183,-13.05951 -12.74339,-13.05951l-37.12428,0c-7.03748,0 -12.74338,5.84745 -12.74338,13.05951l0,6.85461c-0.01231,0.15559 -0.02052,0.3154 -0.02052,0.4773l0,39.48131c0,3.06775 2.42518,5.55307 5.41867,5.55307c2.9894,0 5.42071,-2.48533 5.42071,-5.55307l0,-38.89677l3.63364,0l0,44.45404l0.02667,0l0,62.81222c0,4.08332 3.23561,7.40128 7.2242,7.40128c3.99064,0 7.2242,-3.31376 7.2242,-7.40128l0,-62.81222l4.76621,0l0,62.81222c0,4.08332 3.23762,7.40128 7.22419,7.40128c3.99062,0 7.22418,-3.31376 7.22418,-7.40128l0,-62.81222l0.02257,0l0,-44.45404l3.63364,0l0,38.89465c0,3.06776 2.4313,5.55518 5.42071,5.55518c2.99353,0 5.41867,-2.48742 5.41867,-5.55518l0,-39.4813c-0.00204,-0.164 -0.01436,-0.31961 -0.02668,-0.4752l0,0.00001l-0.00001,0z" fill="#000000" transform="rotate(27.5961 464.414 370.76)"/>
  <path opacity="0.65" id="svg_13" d="m320.25337,255.69638c54.64211,3.80765 47.46837,-38.60761 49.3671,-35.44305c1.89873,3.16456 279.74693,86.07598 310.12668,95.56965c30.37976,9.49367 -295.56972,258.22793 -310.7597,218.98732" stroke="#000" fill="#FFFF91"/>
  <line fill="none" x1="369.07216" y1="535.6412" x2="320.10309" y2="255.75339" id="svg_2" stroke="#000"/>
 </g>

</svg>